<svg width="20" height="17" viewBox="0 0 20 17" fill="none" xmlns="http://www.w3.org/2000/svg">
<path fill-rule="evenodd" clip-rule="evenodd" d="M4.31539 16.8692C4.48974 16.9564 4.62051 17 4.79487 17C4.92564 17 5.05641 16.9564 5.18718 16.9128L9.3718 14.8205H18.3077C18.7872 14.8205 19.1795 14.4282 19.1795 13.9487V0.871795C19.1795 0.392308 18.7872 0 18.3077 0H0.871795C0.392308 0 0 0.392308 0 0.871795V13.9487C0 14.4282 0.392308 14.8205 0.871795 14.8205H3.92308V16.1282C3.92308 16.4333 4.05385 16.6949 4.31539 16.8692ZM5.23068 8.93593C4.75119 8.93593 4.35889 8.54362 4.35889 8.06413V6.75644C4.35889 6.27695 4.75119 5.88464 5.23068 5.88464C5.71017 5.88464 6.10248 6.27695 6.10248 6.75644V8.06413C6.10248 8.54362 5.71017 8.93593 5.23068 8.93593ZM8.71786 8.06413C8.71786 8.54362 9.11017 8.93593 9.58966 8.93593C10.0691 8.93593 10.4615 8.54362 10.4615 8.06413V6.75644C10.4615 6.27695 10.0691 5.88464 9.58966 5.88464C9.11017 5.88464 8.71786 6.27695 8.71786 6.75644V8.06413ZM13.0768 8.06413C13.0768 8.54362 13.4691 8.93593 13.9486 8.93593C14.4281 8.93593 14.8204 8.54362 14.8204 8.06413V6.75644C14.8204 6.27695 14.4281 5.88464 13.9486 5.88464C13.4691 5.88464 13.0768 6.27695 13.0768 6.75644V8.06413Z" fill="#767676"/>
</svg>
