<svg width="24" height="24" viewBox="0 0 24 24" fill="none" xmlns="http://www.w3.org/2000/svg">
<path fill-rule="evenodd" clip-rule="evenodd" d="M14.2761 9.84281H19.4986C19.4986 9.84281 22.3473 9.36804 21.8725 11.6232C21.8007 11.964 21.7182 12.3969 21.6243 12.8887C21.0972 15.6521 20.215 20.2767 18.9052 20.8813H7.62929V10.4363C7.62929 10.4363 10.9527 8.06241 11.1901 5.80724C11.1928 5.78257 11.1956 5.75801 11.1983 5.73356C11.4305 3.64091 11.5708 2.3761 13.6826 3.31468C15.4537 4.14814 14.9387 6.6276 14.4653 8.90698C14.3993 9.22447 14.3342 9.53807 14.2761 9.84281ZM6.32341 10.4364H3V21.0001H6.32341V10.4364Z" fill="#767676"/>
</svg>
