<svg width="14" height="4" viewBox="0 0 14 4" fill="none" xmlns="http://www.w3.org/2000/svg">
<path d="M0.4375 1.98047C0.4375 2.1241 0.465791 2.26633 0.520757 2.39903C0.575723 2.53173 0.656288 2.6523 0.757852 2.75387C0.859416 2.85543 0.97999 2.936 1.11269 2.99096C1.24539 3.04593 1.38762 3.07422 1.53125 3.07422C1.67488 3.07422 1.81711 3.04593 1.94981 2.99096C2.08251 2.936 2.20308 2.85543 2.30465 2.75387C2.40621 2.6523 2.48678 2.53173 2.54174 2.39903C2.59671 2.26633 2.625 2.1241 2.625 1.98047C2.625 1.83684 2.59671 1.69461 2.54174 1.56191C2.48678 1.42921 2.40621 1.30863 2.30465 1.20707C2.20308 1.10551 2.08251 1.02494 1.94981 0.969976C1.81711 0.91501 1.67488 0.886719 1.53125 0.886719C1.38762 0.886719 1.24539 0.91501 1.11269 0.969976C0.97999 1.02494 0.859416 1.10551 0.757852 1.20707C0.656288 1.30863 0.575723 1.42921 0.520757 1.56191C0.465791 1.69461 0.4375 1.83684 0.4375 1.98047ZM5.90625 1.98047C5.90625 2.27055 6.02148 2.54875 6.2266 2.75387C6.43172 2.95898 6.70992 3.07422 7 3.07422C7.29008 3.07422 7.56828 2.95898 7.7734 2.75387C7.97852 2.54875 8.09375 2.27055 8.09375 1.98047C8.09375 1.69039 7.97852 1.41219 7.7734 1.20707C7.56828 1.00195 7.29008 0.886719 7 0.886719C6.70992 0.886719 6.43172 1.00195 6.2266 1.20707C6.02148 1.41219 5.90625 1.69039 5.90625 1.98047ZM11.375 1.98047C11.375 2.27055 11.4902 2.54875 11.6954 2.75387C11.9005 2.95898 12.1787 3.07422 12.4688 3.07422C12.7588 3.07422 13.037 2.95898 13.2421 2.75387C13.4473 2.54875 13.5625 2.27055 13.5625 1.98047C13.5625 1.69039 13.4473 1.41219 13.2421 1.20707C13.037 1.00195 12.7588 0.886719 12.4688 0.886719C12.1787 0.886719 11.9005 1.00195 11.6954 1.20707C11.4902 1.41219 11.375 1.69039 11.375 1.98047Z" fill="#8C8C8C"/>
</svg>
