<svg width="18" height="12" viewBox="0 0 18 12" fill="none" xmlns="http://www.w3.org/2000/svg">
<path id="Subtract" fill-rule="evenodd" clip-rule="evenodd" d="M8.20822 4.30008L9.32892 3.17938L9.78985 2.71845C9.53637 2.65737 9.27187 2.625 9 2.625C7.14 2.625 5.625 4.14 5.625 6C5.625 6.27187 5.65737 6.53637 5.71845 6.78985L7.30008 5.20822C7.48641 4.80916 7.80916 4.48641 8.20822 4.30008ZM8.87974 7.8712L7.65563 9.09531C8.06783 9.27517 8.52255 9.375 9 9.375C10.86 9.375 12.375 7.86 12.375 6C12.375 5.52255 12.2752 5.06783 12.0953 4.65563L11.4502 5.3007L10.8712 5.87974C10.8737 5.91951 10.875 5.9596 10.875 6C10.875 7.035 10.035 7.875 9 7.875C8.9596 7.875 8.91951 7.87372 8.87974 7.8712ZM13.4148 3.33614C14.3314 4.0227 15.09 4.92765 15.615 6C14.3775 8.5275 11.85 10.125 9 10.125C8.28104 10.125 7.5826 10.0233 6.92022 9.83073L5.7442 11.0067C6.75191 11.4057 7.85022 11.625 9 11.625C12.75 11.625 15.9525 9.2925 17.25 6C16.6681 4.52348 15.7032 3.24003 14.4775 2.27342L13.4148 3.33614ZM11.7104 0.797873C10.8563 0.523292 9.94554 0.375 9 0.375C5.25 0.375 2.0475 2.7075 0.75 6C1.26648 7.31061 2.08481 8.46911 3.11938 9.38893L4.17439 8.33391C3.44122 7.69675 2.82979 6.90844 2.385 6C3.6225 3.4725 6.1575 1.875 9 1.875C9.50659 1.875 10.0034 1.92574 10.4849 2.02344L11.7104 0.797873Z" fill="#767676"/>
</svg>
